<svg width="20" height="20" viewBox="0 0 20 20" fill="none" xmlns="http://www.w3.org/2000/svg">
<path d="M8.60851 13.8274H3.35791" stroke="url(#paint0_linear_215_3015)" stroke-width="1.5" stroke-linecap="round" stroke-linejoin="round"/>
<path d="M10.9504 5.75032H16.201" stroke="url(#paint1_linear_215_3015)" stroke-width="1.5" stroke-linecap="round" stroke-linejoin="round"/>
<path fill-rule="evenodd" clip-rule="evenodd" d="M7.27195 5.70521C7.27195 4.6255 6.39015 3.75 5.30266 3.75C4.21517 3.75 3.33337 4.6255 3.33337 5.70521C3.33337 6.78492 4.21517 7.66042 5.30266 7.66042C6.39015 7.66042 7.27195 6.78492 7.27195 5.70521Z" stroke="url(#paint2_linear_215_3015)" stroke-width="1.5" stroke-linecap="round" stroke-linejoin="round"/>
<path fill-rule="evenodd" clip-rule="evenodd" d="M16.6667 13.7948C16.6667 12.7151 15.7856 11.8396 14.6981 11.8396C13.6099 11.8396 12.7281 12.7151 12.7281 13.7948C12.7281 14.8745 13.6099 15.75 14.6981 15.75C15.7856 15.75 16.6667 14.8745 16.6667 13.7948Z" stroke="url(#paint3_linear_215_3015)" stroke-width="1.5" stroke-linecap="round" stroke-linejoin="round"/>
<defs>
<linearGradient id="paint0_linear_215_3015" x1="8.60851" y1="14.1719" x2="7.45722" y2="11.6279" gradientUnits="userSpaceOnUse">
<stop stop-color="#7210FF"/>
<stop offset="1" stop-color="#9D59FF"/>
</linearGradient>
<linearGradient id="paint1_linear_215_3015" x1="16.201" y1="6.09479" x2="15.0498" y2="3.55074" gradientUnits="userSpaceOnUse">
<stop stop-color="#7210FF"/>
<stop offset="1" stop-color="#9D59FF"/>
</linearGradient>
<linearGradient id="paint2_linear_215_3015" x1="7.27195" y1="7.66042" x2="2.59064" y2="6.29335" gradientUnits="userSpaceOnUse">
<stop stop-color="#7210FF"/>
<stop offset="1" stop-color="#9D59FF"/>
</linearGradient>
<linearGradient id="paint3_linear_215_3015" x1="16.6667" y1="15.75" x2="11.9854" y2="14.3829" gradientUnits="userSpaceOnUse">
<stop stop-color="#7210FF"/>
<stop offset="1" stop-color="#9D59FF"/>
</linearGradient>
</defs>
</svg>
