<svg width="19" height="24" viewBox="0 0 19 24" fill="none" xmlns="http://www.w3.org/2000/svg">
<path fill-rule="evenodd" clip-rule="evenodd" d="M5.81875 0H13.1456C16.3638 0 18.9644 1.28395 19 4.54782V22.7631C19 22.9671 18.9525 23.1711 18.8575 23.3511C18.7031 23.6391 18.4419 23.8551 18.1213 23.9511C17.8125 24.0471 17.4681 23.9991 17.1831 23.8311L9.48812 19.9432L1.78125 23.8311C1.60431 23.9259 1.40125 23.9871 1.19937 23.9871C0.534373 23.9871 0 23.4351 0 22.7631V4.54782C0 1.28395 2.6125 0 5.81875 0ZM5.01125 9.14365H13.9531C14.4638 9.14365 14.8794 8.72246 14.8794 8.19568C14.8794 7.6677 14.4638 7.24772 13.9531 7.24772H5.01125C4.50063 7.24772 4.085 7.6677 4.085 8.19568C4.085 8.72246 4.50063 9.14365 5.01125 9.14365Z" fill="url(#paint0_linear_211_4665)"/>
<defs>
<linearGradient id="paint0_linear_211_4665" x1="9.5" y1="0" x2="9.5" y2="24" gradientUnits="userSpaceOnUse">
<stop stop-color="#9D28AC"/>
<stop offset="1" stop-color="#FFC02D"/>
</linearGradient>
</defs>
</svg>
