<svg width="60" height="60" viewBox="0 0 60 60" fill="none" xmlns="http://www.w3.org/2000/svg">
<rect width="60" height="60" rx="30" fill="#F4ECFF"/>
<path fill-rule="evenodd" clip-rule="evenodd" d="M34.8514 25.605C34.8514 28.3463 32.6661 30.5444 29.9406 30.5444C27.2152 30.5444 25.0298 28.3463 25.0298 25.605C25.0298 22.8626 27.2152 20.6667 29.9406 20.6667C32.6661 20.6667 34.8514 22.8626 34.8514 25.605ZM29.9406 39.3333C25.9376 39.3333 22.5195 38.6987 22.5195 36.1602C22.5195 33.6206 25.9156 32.9629 29.9406 32.9629C33.9437 32.9629 37.3617 33.5975 37.3617 36.1371C37.3617 38.6756 33.9656 39.3333 29.9406 39.3333ZM36.95 25.6941C36.95 27.0915 36.5332 28.3934 35.802 29.4756C35.7268 29.587 35.7936 29.7372 35.9263 29.7603C36.1091 29.7918 36.2982 29.8097 36.4904 29.815C38.4073 29.8654 40.1278 28.6245 40.6031 26.7563C41.3072 23.9814 39.2399 21.4902 36.6074 21.4902C36.3212 21.4902 36.0475 21.5207 35.7811 21.5753C35.7445 21.5837 35.7059 21.6005 35.685 21.6331C35.6599 21.673 35.6787 21.7266 35.7038 21.7613C36.4946 22.8761 36.95 24.2357 36.95 25.6941ZM40.1247 31.7647C41.4127 32.0179 42.2599 32.5348 42.6109 33.2861C42.9076 33.9028 42.9076 34.6184 42.6109 35.2341C42.074 36.3993 40.343 36.7734 39.6703 36.87C39.5313 36.8911 39.4195 36.7702 39.4342 36.6305C39.7779 33.4017 37.044 31.8708 36.3368 31.5188C36.3065 31.503 36.3003 31.4789 36.3034 31.4642C36.3055 31.4536 36.318 31.4368 36.341 31.4337C37.8714 31.4053 39.5167 31.6155 40.1247 31.7647ZM23.51 29.8149C23.7023 29.8096 23.8903 29.7928 24.0741 29.7602C24.2068 29.7371 24.2737 29.5869 24.1985 29.4755C23.4672 28.3932 23.0504 27.0914 23.0504 25.694C23.0504 24.2356 23.5059 22.876 24.2967 21.7612C24.3217 21.7265 24.3395 21.6729 24.3155 21.633C24.2946 21.6015 24.2549 21.5836 24.2194 21.5752C23.9519 21.5206 23.6782 21.4901 23.392 21.4901C20.7595 21.4901 18.6922 23.9813 19.3973 26.7562C19.8726 28.6244 21.5931 29.8653 23.51 29.8149ZM23.6965 31.4635C23.6996 31.4793 23.6934 31.5024 23.6641 31.5192C22.9559 31.8712 20.222 33.4021 20.5657 36.6299C20.5804 36.7706 20.4696 36.8904 20.3307 36.8705C19.6579 36.7738 17.927 36.3997 17.39 35.2345C17.0923 34.6177 17.0923 33.9033 17.39 33.2865C17.741 32.5352 18.5872 32.0183 19.8752 31.764C20.4843 31.6159 22.1285 31.4057 23.6599 31.4341C23.6829 31.4373 23.6944 31.4541 23.6965 31.4635Z" fill="url(#paint0_linear_1_2420)"/>
<defs>
<linearGradient id="paint0_linear_1_2420" x1="42.8334" y1="39.3333" x2="14.2654" y2="27.9442" gradientUnits="userSpaceOnUse">
<stop stop-color="#7210FF"/>
<stop offset="1" stop-color="#9D59FF"/>
</linearGradient>
</defs>
</svg>
