<svg width="60" height="60" viewBox="0 0 60 60" fill="none" xmlns="http://www.w3.org/2000/svg">
<rect width="60" height="60" rx="30" fill="#F4ECFF"/>
<path d="M29.9989 24.6065C28.5682 24.6065 27.196 25.1749 26.1843 26.1866C25.1726 27.1983 24.6042 28.5704 24.6042 30.0012C24.6042 31.4319 25.1726 32.8041 26.1843 33.8158C27.196 34.8275 28.5682 35.3958 29.9989 35.3958C31.4297 35.3958 32.8018 34.8275 33.8135 33.8158C34.8252 32.8041 35.3936 31.4319 35.3936 30.0012C35.3936 28.5704 34.8252 27.1983 33.8135 26.1866C32.8018 25.1749 31.4297 24.6065 29.9989 24.6065ZM29.9989 33.5047C29.0694 33.5047 28.178 33.1354 27.5207 32.4782C26.8635 31.8209 26.4942 30.9295 26.4942 30C26.4942 29.0705 26.8635 28.1791 27.5207 27.5218C28.178 26.8646 29.0694 26.4953 29.9989 26.4953C30.9284 26.4953 31.8198 26.8646 32.4771 27.5218C33.1343 28.1791 33.5036 29.0705 33.5036 30C33.5036 30.9295 33.1343 31.8209 32.4771 32.4782C31.8198 33.1354 30.9284 33.5047 29.9989 33.5047Z" fill="url(#paint0_linear_1_2436)"/>
<path d="M35.607 25.6658C36.3016 25.6658 36.8647 25.1028 36.8647 24.4082C36.8647 23.7136 36.3016 23.1505 35.607 23.1505C34.9124 23.1505 34.3494 23.7136 34.3494 24.4082C34.3494 25.1028 34.9124 25.6658 35.607 25.6658Z" fill="url(#paint1_linear_1_2436)"/>
<path d="M39.9553 23.1295C39.6852 22.4321 39.2725 21.7987 38.7435 21.2699C38.2145 20.7412 37.581 20.3287 36.8834 20.0589C36.0672 19.7524 35.2048 19.5868 34.3331 19.5689C33.2096 19.5199 32.8538 19.5059 30.0048 19.5059C27.1558 19.5059 26.7906 19.5059 25.6764 19.5689C24.8054 19.5858 23.9437 19.7516 23.1284 20.0589C22.4307 20.3284 21.797 20.7407 21.268 21.2695C20.739 21.7983 20.3264 22.4319 20.0566 23.1295C19.7501 23.9457 19.5848 24.8082 19.5678 25.6799C19.5176 26.8022 19.5024 27.158 19.5024 30.0082C19.5024 32.8572 19.5024 33.22 19.5678 34.3365C19.5853 35.2092 19.7498 36.0702 20.0566 36.888C20.3271 37.5854 20.7402 38.2187 21.2693 38.7474C21.7984 39.2762 22.432 39.6887 23.1296 39.9587C23.9433 40.2774 24.8054 40.455 25.6788 40.4837C26.8023 40.5327 27.1581 40.5479 30.0071 40.5479C32.8561 40.5479 33.2213 40.5479 34.3354 40.4837C35.2071 40.466 36.0694 40.3007 36.8858 39.9949C37.5832 39.7244 38.2165 39.3116 38.7454 38.7827C39.2743 38.2538 39.6872 37.6204 39.9576 36.923C40.2644 36.1064 40.4289 35.2454 40.4464 34.3727C40.4966 33.2504 40.5118 32.8945 40.5118 30.0444C40.5118 27.1942 40.5118 26.8325 40.4464 25.716C40.4329 24.832 40.2667 23.957 39.9553 23.1295ZM38.5343 34.2502C38.5268 34.9225 38.404 35.5886 38.1714 36.2195C37.9962 36.6732 37.728 37.0852 37.384 37.429C37.04 37.7728 36.6279 38.0408 36.1741 38.2157C35.5502 38.4472 34.8912 38.5699 34.2258 38.5785C33.1174 38.6299 32.8048 38.6427 29.9628 38.6427C27.1184 38.6427 26.8279 38.6427 25.6986 38.5785C25.0335 38.5704 24.3748 38.4476 23.7514 38.2157C23.2961 38.0418 22.8823 37.7743 22.5368 37.4305C22.1913 37.0866 21.9219 36.6741 21.7459 36.2195C21.5166 35.5954 21.394 34.9372 21.3831 34.2724C21.3329 33.164 21.3213 32.8514 21.3213 30.0094C21.3213 27.1662 21.3213 26.8757 21.3831 25.7452C21.3906 25.0732 21.5134 24.4075 21.7459 23.777C22.1018 22.8565 22.8309 22.132 23.7514 21.7797C24.3751 21.5489 25.0336 21.4262 25.6986 21.4169C26.8081 21.3667 27.1196 21.3527 29.9628 21.3527C32.8059 21.3527 33.0976 21.3527 34.2258 21.4169C34.8913 21.4249 35.5504 21.5476 36.1741 21.7797C36.6279 21.955 37.0399 22.2233 37.3839 22.5672C37.7279 22.9112 37.9961 23.3233 38.1714 23.777C38.4008 24.4011 38.5234 25.0594 38.5343 25.7242C38.5844 26.8337 38.5973 27.1452 38.5973 29.9884C38.5973 32.8304 38.5973 33.136 38.5471 34.2514H38.5343V34.2502Z" fill="url(#paint2_linear_1_2436)"/>
<defs>
<linearGradient id="paint0_linear_1_2436" x1="35.3936" y1="35.3958" x2="22.5552" y2="31.6735" gradientUnits="userSpaceOnUse">
<stop stop-color="#7210FF"/>
<stop offset="1" stop-color="#9D59FF"/>
</linearGradient>
<linearGradient id="paint1_linear_1_2436" x1="36.8647" y1="25.6658" x2="33.8717" y2="24.798" gradientUnits="userSpaceOnUse">
<stop stop-color="#7210FF"/>
<stop offset="1" stop-color="#9D59FF"/>
</linearGradient>
<linearGradient id="paint2_linear_1_2436" x1="40.5118" y1="40.5479" x2="15.5065" y2="33.3091" gradientUnits="userSpaceOnUse">
<stop stop-color="#7210FF"/>
<stop offset="1" stop-color="#9D59FF"/>
</linearGradient>
</defs>
</svg>
