<svg width="60" height="61" viewBox="0 0 60 61" fill="none" xmlns="http://www.w3.org/2000/svg">
<rect y="0.75" width="60" height="60" rx="30" fill="#7210FF" fill-opacity="0.08"/>
<path d="M40.9987 19.758C40.4154 19.1618 39.552 18.9413 38.747 19.1747L19.9754 24.5985C19.126 24.8342 18.524 25.5073 18.3619 26.3613C18.1962 27.2317 18.7749 28.3377 19.5309 28.7997L25.4004 32.3837C26.0024 32.7523 26.7794 32.6602 27.2775 32.1608L33.9987 25.4397C34.337 25.0885 34.897 25.0885 35.2354 25.4397C35.5737 25.7768 35.5737 26.3263 35.2354 26.6763L28.5025 33.3975C28.0032 33.8968 27.9099 34.6715 28.2774 35.2747L31.8637 41.1663C32.2837 41.8652 33.007 42.263 33.8004 42.263C33.8937 42.263 33.9987 42.263 34.092 42.2502C35.002 42.1347 35.7254 41.5152 35.9937 40.6402L41.5587 22.0097C41.8037 21.2163 41.582 20.353 40.9987 19.758Z" fill="url(#paint0_linear_1_7779)"/>
<path opacity="0.4" fill-rule="evenodd" clip-rule="evenodd" d="M19.5123 36.3591C19.2883 36.3591 19.0643 36.2739 18.8939 36.1024C18.5521 35.7606 18.5521 35.2076 18.8939 34.8658L20.4864 33.2721C20.8283 32.9314 21.3824 32.9314 21.7243 33.2721C22.0649 33.6139 22.0649 34.1681 21.7243 34.5099L20.1306 36.1024C19.9603 36.2739 19.7363 36.3591 19.5123 36.3591ZM23.9003 37.7502C23.6763 37.7502 23.4523 37.6651 23.282 37.4936C22.9402 37.1517 22.9402 36.5987 23.282 36.2569L24.8745 34.6632C25.2163 34.3226 25.7705 34.3226 26.1123 34.6632C26.453 35.0051 26.453 35.5592 26.1123 35.9011L24.5187 37.4936C24.3483 37.6651 24.1243 37.7502 23.9003 37.7502ZM24.1963 41.9129C24.3667 42.0844 24.5907 42.1696 24.8147 42.1696C25.0387 42.1696 25.2627 42.0844 25.433 41.9129L27.0267 40.3204C27.3673 39.9786 27.3673 39.4244 27.0267 39.0826C26.6848 38.7419 26.1307 38.7419 25.7888 39.0826L24.1963 40.6762C23.8545 41.0181 23.8545 41.5711 24.1963 41.9129Z" fill="url(#paint1_linear_1_7779)"/>
<defs>
<linearGradient id="paint0_linear_1_7779" x1="41.6572" y1="42.263" x2="13.9308" y2="34.174" gradientUnits="userSpaceOnUse">
<stop stop-color="#7210FF"/>
<stop offset="1" stop-color="#9D59FF"/>
</linearGradient>
<linearGradient id="paint1_linear_1_7779" x1="27.2822" y1="42.1696" x2="16.909" y2="39.329" gradientUnits="userSpaceOnUse">
<stop stop-color="#7210FF"/>
<stop offset="1" stop-color="#9D59FF"/>
</linearGradient>
</defs>
</svg>
