<svg width="60" height="61" viewBox="0 0 60 61" fill="none" xmlns="http://www.w3.org/2000/svg">
<rect y="0.25" width="60" height="60" rx="30" fill="#7210FF" fill-opacity="0.08"/>
<path d="M23 40.75C22.6906 40.75 22.3939 40.6271 22.1751 40.4083C21.9563 40.1895 21.8334 39.8928 21.8334 39.5834V22.0834C21.8334 21.774 21.9563 21.4772 22.1751 21.2584C22.3939 21.0396 22.6906 20.9167 23 20.9167H30.4434C30.6608 20.9152 30.8743 20.9745 31.0599 21.0879C31.2454 21.2012 31.3955 21.3642 31.4934 21.5584L32.3334 23.25H38.1667C38.4761 23.25 38.7729 23.373 38.9917 23.5918C39.2105 23.8105 39.3334 24.1073 39.3334 24.4167V33.75C39.3334 34.0595 39.2105 34.3562 38.9917 34.575C38.7729 34.7938 38.4761 34.9167 38.1667 34.9167H31.8784C31.6629 34.9161 31.4519 34.8558 31.2686 34.7425C31.0853 34.6292 30.937 34.4674 30.84 34.275L30 32.5834H24.1667V39.5834C24.1667 39.8928 24.0438 40.1895 23.825 40.4083C23.6062 40.6271 23.3095 40.75 23 40.75ZM24.1667 23.25V30.25H31.1667L32.3334 32.5834H37V25.5834H31.1667L30 23.25H24.1667Z" fill="url(#paint0_linear_1_7805)"/>
<defs>
<linearGradient id="paint0_linear_1_7805" x1="39.3334" y1="40.7501" x2="18.1461" y2="35.3297" gradientUnits="userSpaceOnUse">
<stop stop-color="#7210FF"/>
<stop offset="1" stop-color="#9D59FF"/>
</linearGradient>
</defs>
</svg>
