<svg width="60" height="60" viewBox="0 0 60 60" fill="none" xmlns="http://www.w3.org/2000/svg">
<rect width="60" height="60" rx="30" fill="#F4ECFF"/>
<path d="M31.1667 33.2667C31.1667 32.7512 30.7488 32.3333 30.2333 32.3333H28.8333C26.9195 32.3326 25.0419 32.855 23.4035 33.8441C22.0358 34.6697 20.8782 35.7943 20.0148 37.1287C19.8657 37.3591 19.4999 37.2745 19.5 37C19.5 30.8706 24.2263 25.8455 30.2335 25.3701C30.7473 25.3294 31.1667 24.9155 31.1667 24.4V21.4419C31.1667 20.6593 32.0719 20.2242 32.683 20.7131L41.9223 28.1045C42.3894 28.4782 42.3894 29.1885 41.9223 29.5621L32.683 36.9536C32.0719 37.4425 31.1667 37.0074 31.1667 36.2248V33.2667Z" fill="url(#paint0_linear_1_2412)"/>
<defs>
<linearGradient id="paint0_linear_1_2412" x1="42.2726" y1="37.262" x2="16.8458" y2="27.2421" gradientUnits="userSpaceOnUse">
<stop stop-color="#7210FF"/>
<stop offset="1" stop-color="#9D59FF"/>
</linearGradient>
</defs>
</svg>
