<svg width="28" height="28" viewBox="0 0 28 28" fill="none" xmlns="http://www.w3.org/2000/svg">
<path d="M22.9052 9.32984C22.9204 9.53401 22.9204 9.73701 22.9204 9.94001C22.9204 16.1525 18.1919 23.3112 9.55037 23.3112C6.88804 23.3112 4.41471 22.54 2.33337 21.2007C2.71137 21.2438 3.07537 21.259 3.46854 21.259C5.5837 21.2641 7.63896 20.5568 9.30304 19.2512C8.32237 19.2334 7.37171 18.9099 6.58382 18.3257C5.79592 17.7415 5.21012 16.9259 4.90821 15.9927C5.19871 16.0358 5.49037 16.065 5.79604 16.065C6.21721 16.065 6.64071 16.0067 7.03387 15.9052C5.96959 15.6903 5.01259 15.1134 4.3256 14.2726C3.6386 13.4319 3.26402 12.3791 3.26554 11.2933V11.235C3.89204 11.5838 4.61887 11.802 5.38887 11.8312C4.74381 11.4025 4.21488 10.8209 3.84927 10.1381C3.48366 9.45533 3.29274 8.69267 3.29354 7.91818C3.29354 7.04551 3.52571 6.24518 3.93287 5.54751C5.1137 7.00003 6.58646 8.18833 8.25577 9.03544C9.92507 9.88256 11.7537 10.3696 13.6232 10.465C13.5509 10.115 13.5065 9.75218 13.5065 9.38818C13.5062 8.77097 13.6276 8.15974 13.8636 7.58946C14.0997 7.01917 14.4458 6.501 14.8823 6.06456C15.3187 5.62813 15.8369 5.28199 16.4072 5.04593C16.9774 4.80988 17.5887 4.68854 18.2059 4.68884C19.5592 4.68884 20.7807 5.25584 21.6394 6.17284C22.6914 5.9694 23.7003 5.58534 24.6214 5.03768C24.2707 6.12363 23.5361 7.04446 22.5552 7.62768C23.4883 7.52125 24.4002 7.27587 25.2607 6.89968C24.618 7.83662 23.8216 8.65825 22.9052 9.32984Z" fill="#212121"/>
</svg>
