<svg width="33" height="33" viewBox="0 0 33 33" fill="none" xmlns="http://www.w3.org/2000/svg">
<path fill-rule="evenodd" clip-rule="evenodd" d="M24.0395 1.14115C26.2872 1.00067 28.5037 1.78111 30.1738 3.31078C31.7035 4.98093 32.484 7.19738 32.3591 9.46067V24.0393C32.4996 26.3026 31.7035 28.5191 30.1895 30.1892C28.5193 31.7189 26.2872 32.4993 24.0395 32.3589H9.46073C7.19743 32.4993 4.98096 31.7189 3.3108 30.1892C1.78112 28.5191 1.00067 26.3026 1.14115 24.0393V9.46067C1.00067 7.19738 1.78112 4.98093 3.3108 3.31078C4.98096 1.78111 7.19743 1.00067 9.46073 1.14115H24.0395ZM15.158 24.3203L25.6629 13.7843C26.615 12.8166 26.615 11.2557 25.6629 10.3035L23.6337 8.27439C22.6659 7.30664 21.105 7.30664 20.1373 8.27439L19.0915 9.3358C18.9354 9.49188 18.9354 9.75723 19.0915 9.91332C19.0915 9.91332 21.5733 12.3795 21.6201 12.442C21.7918 12.6293 21.9011 12.879 21.9011 13.16C21.9011 13.7219 21.4484 14.1901 20.8709 14.1901C20.6055 14.1901 20.3558 14.0809 20.1841 13.9092L17.5774 11.3181C17.4525 11.1932 17.234 11.1932 17.1091 11.3181L9.66365 18.7635C9.14855 19.2786 8.85198 19.9654 8.83637 20.699L8.74272 24.3983C8.74272 24.6013 8.80516 24.7886 8.94564 24.929C9.08612 25.0695 9.27343 25.1476 9.47634 25.1476H13.1445C13.8937 25.1476 14.6117 24.851 15.158 24.3203Z" fill="white"/>
<path d="M30.1738 3.31078L30.5426 2.97307L30.5277 2.95688L30.5116 2.94206L30.1738 3.31078ZM24.0395 1.14115V1.64115H24.0551L24.0707 1.64018L24.0395 1.14115ZM32.3591 9.46067L31.8599 9.43312L31.8591 9.44688V9.46067H32.3591ZM32.3591 24.0393H31.8591V24.0548L31.8601 24.0703L32.3591 24.0393ZM30.1895 30.1892L30.5272 30.5579L30.5443 30.5423L30.5599 30.525L30.1895 30.1892ZM24.0395 32.3589L24.0707 31.8598L24.0551 31.8589H24.0395V32.3589ZM9.46073 32.3589V31.8589H9.44523L9.42976 31.8598L9.46073 32.3589ZM3.3108 30.1892L2.94208 30.5269L2.9569 30.5431L2.97309 30.5579L3.3108 30.1892ZM1.14115 24.0393L1.64019 24.0703L1.64115 24.0548V24.0393H1.14115ZM1.14115 9.46067H1.64115V9.44516L1.64019 9.42969L1.14115 9.46067ZM3.3108 3.31078L2.97309 2.94206L2.9569 2.95688L2.94208 2.97307L3.3108 3.31078ZM9.46073 1.14115L9.42976 1.64019L9.44523 1.64115H9.46073V1.14115ZM25.6629 13.7843L26.0169 14.1374L26.0193 14.135L25.6629 13.7843ZM15.158 24.3203L15.5064 24.679L15.5121 24.6733L15.158 24.3203ZM25.6629 10.3035L25.3093 10.6571L25.6629 10.3035ZM23.6337 8.27439L23.9872 7.92084L23.6337 8.27439ZM20.1373 8.27439L19.7837 7.92083L19.7811 7.92347L20.1373 8.27439ZM19.0915 9.3358L19.445 9.68936L19.4476 9.68672L19.0915 9.3358ZM19.0915 9.91332L18.7379 10.2669L18.739 10.268L19.0915 9.91332ZM21.6201 12.442L21.2201 12.742L21.2349 12.7617L21.2516 12.7798L21.6201 12.442ZM20.1841 13.9092L20.5377 13.5556L20.5366 13.5546L20.1841 13.9092ZM17.5774 11.3181L17.2238 11.6717L17.2249 11.6727L17.5774 11.3181ZM17.1091 11.3181L17.4627 11.6717L17.1091 11.3181ZM9.66365 18.7635L9.3101 18.41V18.41L9.66365 18.7635ZM8.83637 20.699L9.33622 20.7117L9.33626 20.7097L8.83637 20.699ZM8.74272 24.3983L8.24272 24.3857V24.3983H8.74272ZM8.94564 24.929L8.59208 25.2826H8.59208L8.94564 24.929ZM30.5116 2.94206C28.7412 1.32067 26.3916 0.493169 24.0083 0.642123L24.0707 1.64018C26.1828 1.50817 28.2661 2.24155 29.8361 3.6795L30.5116 2.94206ZM32.8583 9.48821C32.9905 7.09242 32.1644 4.7438 30.5426 2.97307L29.8051 3.64849C31.2427 5.21805 31.9774 7.30235 31.8599 9.43312L32.8583 9.48821ZM32.8591 24.0393V9.46067H31.8591V24.0393H32.8591ZM30.5599 30.525C32.1629 28.7568 33.0071 26.4087 32.8581 24.0084L31.8601 24.0703C31.992 26.1965 31.2442 28.2813 29.819 29.8534L30.5599 30.525ZM24.0083 32.8579C26.3908 33.0068 28.7562 32.1799 30.5272 30.5579L29.8517 29.8205C28.2824 31.2579 26.1837 31.9919 24.0707 31.8598L24.0083 32.8579ZM9.46073 32.8589H24.0395V31.8589H9.46073V32.8589ZM2.97309 30.5579C4.74377 32.1797 7.09347 33.0067 9.49171 32.8579L9.42976 31.8598C7.30139 31.9919 5.21814 31.2581 3.6485 29.8205L2.97309 30.5579ZM0.642109 24.0084C0.493253 26.4066 1.32034 28.7563 2.94208 30.5269L3.67952 29.8515C2.2419 28.2819 1.50808 26.1987 1.64019 24.0703L0.642109 24.0084ZM0.641149 9.46067V24.0393H1.64115V9.46067H0.641149ZM2.94208 2.97307C1.32034 4.74374 0.493253 7.09342 0.642109 9.49164L1.64019 9.42969C1.50808 7.30134 2.2419 5.21812 3.67952 3.64849L2.94208 2.97307ZM9.49171 0.642109C7.09347 0.493254 4.74377 1.32033 2.97309 2.94206L3.6485 3.6795C5.21814 2.24189 7.30139 1.50808 9.42976 1.64019L9.49171 0.642109ZM24.0395 0.641149H9.46073V1.64115H24.0395V0.641149ZM25.3088 13.4313L14.8039 23.9673L15.5121 24.6733L26.0169 14.1373L25.3088 13.4313ZM25.3093 10.6571C26.0646 11.4124 26.0687 12.6589 25.3064 13.4336L26.0193 14.135C27.1613 12.9743 27.1654 11.099 26.0164 9.94999L25.3093 10.6571ZM23.2801 8.62795L25.3093 10.6571L26.0164 9.94999L23.9872 7.92084L23.2801 8.62795ZM20.4908 8.62795C21.2633 7.85546 22.5076 7.85546 23.2801 8.62795L23.9872 7.92084C22.8242 6.75783 20.9467 6.75783 19.7837 7.92084L20.4908 8.62795ZM19.4476 9.68672L20.4934 8.62532L19.7811 7.92347L18.7353 8.98487L19.4476 9.68672ZM19.445 9.55977C19.4686 9.58331 19.4744 9.60879 19.4744 9.62456C19.4744 9.64033 19.4686 9.66581 19.445 9.68935L18.7379 8.98224C18.3866 9.33359 18.3866 9.91553 18.7379 10.2669L19.445 9.55977ZM22.0201 12.142C21.9932 12.106 21.9499 12.0624 21.9437 12.056C21.9212 12.0326 21.8907 12.0015 21.8542 11.9644C21.7808 11.89 21.6792 11.7877 21.5594 11.6675C21.3195 11.427 21.0045 11.1124 20.6912 10.8001C20.3779 10.4878 20.0661 10.1774 19.8326 9.94516C19.7159 9.82903 19.6187 9.73242 19.5507 9.66483C19.5167 9.63103 19.49 9.6045 19.4718 9.5864C19.4627 9.57736 19.4557 9.57042 19.451 9.56575C19.4487 9.56341 19.4469 9.56164 19.4457 9.56045C19.4451 9.55986 19.4447 9.55941 19.4444 9.55911C19.4442 9.55896 19.4441 9.55885 19.444 9.55877C19.444 9.55873 19.444 9.5587 19.4439 9.55868C19.4439 9.55867 19.4439 9.55865 19.0915 9.91332C18.739 10.268 18.739 10.268 18.7391 10.268C18.7391 10.268 18.7391 10.2681 18.7391 10.2681C18.7392 10.2682 18.7393 10.2683 18.7395 10.2684C18.7398 10.2687 18.7402 10.2692 18.7408 10.2698C18.742 10.271 18.7438 10.2727 18.7461 10.2751C18.7508 10.2797 18.7578 10.2866 18.7669 10.2957C18.7851 10.3137 18.8117 10.3402 18.8457 10.374C18.9136 10.4415 19.0107 10.5381 19.1274 10.6541C19.3607 10.8862 19.6723 11.1963 19.9852 11.5083C20.2983 11.8204 20.6125 12.1341 20.8512 12.3735C20.9706 12.4933 21.0706 12.594 21.1419 12.6663C21.1777 12.7027 21.2053 12.7309 21.2243 12.7506C21.2596 12.7871 21.2412 12.7701 21.2201 12.742L22.0201 12.142ZM22.4011 13.16C22.4011 12.7452 22.2389 12.377 21.9887 12.1041L21.2516 12.7798C21.3448 12.8815 21.4011 13.0128 21.4011 13.16H22.4011ZM20.8709 14.6901C21.7295 14.6901 22.4011 13.9931 22.4011 13.16H21.4011C21.4011 13.4507 21.1674 13.6901 20.8709 13.6901V14.6901ZM19.8305 14.2627C20.0949 14.5271 20.4714 14.6901 20.8709 14.6901V13.6901C20.7397 13.6901 20.6167 13.6346 20.5377 13.5556L19.8305 14.2627ZM17.2249 11.6727L19.8316 14.2638L20.5366 13.5546L17.9299 10.9635L17.2249 11.6727ZM17.4627 11.6717C17.4211 11.7133 17.3748 11.7245 17.3433 11.7245C17.3118 11.7245 17.2654 11.7133 17.2239 11.6717L17.931 10.9646C17.6108 10.6444 17.0757 10.6444 16.7556 10.9646L17.4627 11.6717ZM10.0172 19.1171L17.4627 11.6717L16.7556 10.9646L9.3101 18.41L10.0172 19.1171ZM9.33626 20.7097C9.3491 20.1061 9.59248 19.5418 10.0172 19.1171L9.3101 18.41C8.70463 19.0155 8.35486 19.8248 8.33649 20.6884L9.33626 20.7097ZM9.24256 24.411L9.33621 20.7117L8.33653 20.6864L8.24288 24.3857L9.24256 24.411ZM9.29919 24.5755C9.2713 24.5476 9.24272 24.4979 9.24272 24.3983H8.24272C8.24272 24.7046 8.33902 25.0295 8.59208 25.2826L9.29919 24.5755ZM9.47634 24.6476C9.40531 24.6476 9.34539 24.6217 9.29919 24.5755L8.59208 25.2826C8.82685 25.5174 9.14154 25.6476 9.47634 25.6476V24.6476ZM13.1445 24.6476H9.47634V25.6476H13.1445V24.6476ZM14.8096 23.9617C14.3541 24.4042 13.7601 24.6476 13.1445 24.6476V25.6476C14.0273 25.6476 14.8693 25.2978 15.5064 24.6789L14.8096 23.9617Z" fill="url(#paint0_linear_242_2355)"/>
<defs>
<linearGradient id="paint0_linear_242_2355" x1="16.75" y1="1.125" x2="16.75" y2="32.375" gradientUnits="userSpaceOnUse">
<stop stop-color="#9D28AC"/>
<stop offset="1" stop-color="#FFC02D"/>
</linearGradient>
</defs>
</svg>
