<svg width="41" height="40" viewBox="0 0 41 40" fill="none" xmlns="http://www.w3.org/2000/svg">
<rect x="0.5" width="40" height="40" rx="20" fill="#F4ECFF"/>
<path d="M28.133 15.997C28.146 16.172 28.146 16.346 28.146 16.52C28.146 21.845 24.093 27.981 16.686 27.981C14.404 27.981 12.284 27.32 10.5 26.172C10.824 26.209 11.136 26.222 11.473 26.222C13.286 26.2264 15.0476 25.6202 16.474 24.501C15.6334 24.4858 14.8186 24.2085 14.1432 23.7078C13.4679 23.2071 12.9658 22.5079 12.707 21.708C12.956 21.745 13.206 21.77 13.468 21.77C13.829 21.77 14.192 21.72 14.529 21.633C13.6168 21.4489 12.7965 20.9544 12.2076 20.2337C11.6188 19.5131 11.2977 18.6107 11.299 17.68V17.63C11.836 17.929 12.459 18.116 13.119 18.141C12.5661 17.7736 12.1127 17.2751 11.7993 16.6898C11.486 16.1046 11.3223 15.4509 11.323 14.787C11.323 14.039 11.522 13.353 11.871 12.755C12.8831 14.0001 14.1455 15.0186 15.5763 15.7447C17.0072 16.4708 18.5746 16.8883 20.177 16.97C20.115 16.67 20.077 16.359 20.077 16.047C20.0767 15.518 20.1807 14.9941 20.3831 14.5053C20.5854 14.0165 20.8821 13.5723 21.2562 13.1982C21.6303 12.8241 22.0744 12.5275 22.5632 12.3251C23.0521 12.1228 23.576 12.0188 24.105 12.019C25.265 12.019 26.312 12.505 27.048 13.291C27.9498 13.1167 28.8145 12.7875 29.604 12.318C29.3034 13.2489 28.6738 14.0381 27.833 14.538C28.6328 14.4468 29.4144 14.2365 30.152 13.914C29.6011 14.7171 28.9185 15.4214 28.133 15.997Z" fill="url(#paint0_linear_361_4255)"/>
<defs>
<linearGradient id="paint0_linear_361_4255" x1="30.152" y1="27.981" x2="7.66722" y2="19.9547" gradientUnits="userSpaceOnUse">
<stop stop-color="#7210FF"/>
<stop offset="1" stop-color="#9D59FF"/>
</linearGradient>
</defs>
</svg>
