<svg width="28" height="28" viewBox="0 0 28 28" fill="none" xmlns="http://www.w3.org/2000/svg">
<path d="M13.9988 8.60651C12.568 8.60651 11.1959 9.17487 10.1842 10.1866C9.17249 11.1983 8.60413 12.5704 8.60413 14.0012C8.60413 15.4319 9.17249 16.8041 10.1842 17.8158C11.1959 18.8275 12.568 19.3958 13.9988 19.3958C15.4295 19.3958 16.8017 18.8275 17.8134 17.8158C18.8251 16.8041 19.3935 15.4319 19.3935 14.0012C19.3935 12.5704 18.8251 11.1983 17.8134 10.1866C16.8017 9.17487 15.4295 8.60651 13.9988 8.60651ZM13.9988 17.5047C13.0693 17.5047 12.1779 17.1354 11.5206 16.4782C10.8634 15.8209 10.4941 14.9295 10.4941 14C10.4941 13.0705 10.8634 12.1791 11.5206 11.5218C12.1779 10.8646 13.0693 10.4953 13.9988 10.4953C14.9283 10.4953 15.8197 10.8646 16.477 11.5218C17.1342 12.1791 17.5035 13.0705 17.5035 14C17.5035 14.9295 17.1342 15.8209 16.477 16.4782C15.8197 17.1354 14.9283 17.5047 13.9988 17.5047Z" fill="#212121"/>
<path d="M19.607 9.66585C20.3016 9.66585 20.8647 9.10277 20.8647 8.40818C20.8647 7.71359 20.3016 7.15051 19.607 7.15051C18.9124 7.15051 18.3494 7.71359 18.3494 8.40818C18.3494 9.10277 18.9124 9.66585 19.607 9.66585Z" fill="#212121"/>
<path d="M23.9552 7.12953C23.6851 6.43207 23.2723 5.79869 22.7434 5.26993C22.2144 4.74117 21.5809 4.32868 20.8833 4.05886C20.067 3.75244 19.2047 3.58676 18.333 3.56886C17.2095 3.51986 16.8537 3.50586 14.0047 3.50586C11.1557 3.50586 10.7905 3.50586 9.67632 3.56886C8.80527 3.58584 7.94354 3.75156 7.12832 4.05886C6.43058 4.32836 5.79688 4.74074 5.26788 5.26954C4.73887 5.79834 4.32625 6.43189 4.05649 7.12953C3.75001 7.94574 3.5847 8.80817 3.56765 9.67986C3.51749 10.8022 3.50232 11.158 3.50232 14.0082C3.50232 16.8572 3.50232 17.22 3.56765 18.3365C3.58515 19.2092 3.74965 20.0702 4.05649 20.888C4.32701 21.5854 4.74003 22.2187 5.26916 22.7474C5.79829 23.2762 6.43189 23.6887 7.12949 23.9587C7.94316 24.2774 8.80525 24.455 9.67865 24.4837C10.8022 24.5327 11.158 24.5479 14.007 24.5479C16.856 24.5479 17.2212 24.5479 18.3353 24.4837C19.2069 24.466 20.0693 24.3007 20.8857 23.9949C21.583 23.7244 22.2164 23.3116 22.7453 22.7827C23.2742 22.2538 23.687 21.6204 23.9575 20.923C24.2643 20.1064 24.4288 19.2454 24.4463 18.3727C24.4965 17.2504 24.5117 16.8945 24.5117 14.0444C24.5117 11.1942 24.5117 10.8325 24.4463 9.71603C24.4327 8.83201 24.2666 7.95698 23.9552 7.12953ZM22.5342 18.2502C22.5266 18.9225 22.4039 19.5886 22.1713 20.2195C21.9961 20.6732 21.7279 21.0852 21.3839 21.429C21.0399 21.7728 20.6278 22.0408 20.174 22.2157C19.5501 22.4472 18.8911 22.5699 18.2257 22.5785C17.1173 22.6299 16.8047 22.6427 13.9627 22.6427C11.1183 22.6427 10.8278 22.6427 9.69849 22.5785C9.0334 22.5704 8.3747 22.4476 7.75132 22.2157C7.29595 22.0418 6.88215 21.7743 6.53669 21.4305C6.19123 21.0866 5.92179 20.6741 5.74582 20.2195C5.51651 19.5954 5.39385 18.9372 5.38299 18.2724C5.33282 17.164 5.32115 16.8514 5.32115 14.0094C5.32115 11.1662 5.32115 10.8757 5.38299 9.74519C5.39053 9.07322 5.51325 8.40752 5.74582 7.77703C6.10165 6.85653 6.83082 6.13203 7.75132 5.77969C8.37501 5.54886 9.03351 5.42615 9.69849 5.41686C10.808 5.36669 11.1195 5.35269 13.9627 5.35269C16.8058 5.35269 17.0975 5.35269 18.2257 5.41686C18.8911 5.42487 19.5502 5.54761 20.174 5.77969C20.6277 5.95501 21.0398 6.22326 21.3838 6.56723C21.7278 6.91119 21.996 7.32328 22.1713 7.77703C22.4006 8.40113 22.5233 9.05938 22.5342 9.72419C22.5843 10.8337 22.5972 11.1452 22.5972 13.9884C22.5972 16.8304 22.5972 17.136 22.547 18.2514H22.5342V18.2502Z" fill="#212121"/>
</svg>
