<svg width="24" height="26" viewBox="0 0 24 26" fill="none" xmlns="http://www.w3.org/2000/svg">
<path fill-rule="evenodd" clip-rule="evenodd" d="M14.3498 0.501136C14.9808 0.501136 15.6108 0.590136 16.2098 0.791136C19.9008 1.99114 21.2308 6.04114 20.1198 9.58114C19.4898 11.3901 18.4598 13.0411 17.1108 14.3901C15.1798 16.2601 13.0608 17.9201 10.7798 19.3501L10.5298 19.5011L10.2698 19.3401C7.98077 17.9201 5.84977 16.2601 3.90077 14.3801C2.56077 13.0311 1.52977 11.3901 0.889772 9.58114C-0.240228 6.04114 1.08977 1.99114 4.82077 0.770136C5.11077 0.670136 5.40977 0.600136 5.70977 0.561136H5.82977C6.11077 0.520136 6.38977 0.501136 6.66977 0.501136H6.77977C7.40977 0.520136 8.01977 0.630136 8.61077 0.831136H8.66977C8.70977 0.850136 8.73977 0.871136 8.75977 0.890136C8.98077 0.961136 9.18977 1.04114 9.38977 1.15114L9.76977 1.32114C9.86159 1.37011 9.96466 1.44494 10.0537 1.50961C10.1102 1.55058 10.161 1.58748 10.1998 1.61114C10.2161 1.62076 10.2327 1.63044 10.2494 1.6402C10.3351 1.69026 10.4245 1.7424 10.4998 1.80014C11.6108 0.951136 12.9598 0.491136 14.3498 0.501136ZM17.0098 7.70114C17.4198 7.69014 17.7698 7.36114 17.7998 6.94014V6.82114C17.8298 5.42014 16.9808 4.15114 15.6898 3.66114C15.2798 3.52014 14.8298 3.74114 14.6798 4.16114C14.5398 4.58114 14.7598 5.04114 15.1798 5.19014C15.8208 5.43014 16.2498 6.06114 16.2498 6.76014V6.79114C16.2308 7.02014 16.2998 7.24114 16.4398 7.41114C16.5798 7.58114 16.7898 7.68014 17.0098 7.70114Z" fill="#9E9E9E"/>
<path d="M12.7574 17C11.6714 18 11 19 11 19C11 19 13.6862 23 17 23C17.411 23 17.8124 22.9383 18.2 22.8307M15.8096 15.1667C16.1942 15.0607 16.5926 15 17 15C20.3138 15 23 19 23 19C23 19 22.3283 20 21.2426 21M15.8942 17.8737C15.6289 18.1936 15.4867 18.6161 15.498 19.051C15.5093 19.4858 15.6732 19.8985 15.9546 20.2009C16.236 20.5034 16.6127 20.6716 17.0042 20.6696C17.3958 20.6676 17.7711 20.4956 18.05 20.1903M22.4 25L11.6 13" stroke="url(#paint0_linear_211_4676)" stroke-width="2" stroke-linecap="round" stroke-linejoin="round"/>
<defs>
<linearGradient id="paint0_linear_211_4676" x1="17" y1="13" x2="17" y2="25" gradientUnits="userSpaceOnUse">
<stop stop-color="#9D28AC"/>
<stop offset="1" stop-color="#FFC02D"/>
</linearGradient>
</defs>
</svg>
