<svg width="59" height="59" viewBox="0 0 59 59" fill="none" xmlns="http://www.w3.org/2000/svg">
<rect x="0.333374" y="0.25" width="58" height="58" rx="29" fill="#7210FF" fill-opacity="0.08"/>
<mask id="path-2-inside-1_1_7809" fill="white">
<path d="M29.3334 16.25C36.4834 16.25 42.3334 22.1 42.3334 29.25C42.3334 36.4 36.4834 42.25 29.3334 42.25C22.1834 42.25 16.3334 36.4 16.3334 29.25C16.3334 22.1 22.1834 16.25 29.3334 16.25ZM29.3334 18.85C26.8634 18.85 24.6534 19.63 22.9634 21.06L37.5234 35.62C38.8234 33.8 39.7334 31.59 39.7334 29.25C39.7334 23.53 35.0534 18.85 29.3334 18.85ZM35.7034 37.44L21.1434 22.88C19.7134 24.57 18.9334 26.78 18.9334 29.25C18.9334 34.97 23.6134 39.65 29.3334 39.65C31.8034 39.65 34.0134 38.87 35.7034 37.44Z"/>
</mask>
<path d="M29.3334 16.25C36.4834 16.25 42.3334 22.1 42.3334 29.25C42.3334 36.4 36.4834 42.25 29.3334 42.25C22.1834 42.25 16.3334 36.4 16.3334 29.25C16.3334 22.1 22.1834 16.25 29.3334 16.25ZM29.3334 18.85C26.8634 18.85 24.6534 19.63 22.9634 21.06L37.5234 35.62C38.8234 33.8 39.7334 31.59 39.7334 29.25C39.7334 23.53 35.0534 18.85 29.3334 18.85ZM35.7034 37.44L21.1434 22.88C19.7134 24.57 18.9334 26.78 18.9334 29.25C18.9334 34.97 23.6134 39.65 29.3334 39.65C31.8034 39.65 34.0134 38.87 35.7034 37.44Z" fill="url(#paint0_linear_1_7809)"/>
<path d="M22.9634 21.06L22.705 20.7546L22.3731 21.0354L22.6805 21.3428L22.9634 21.06ZM37.5234 35.62L37.2405 35.9028L37.5744 36.2367L37.8489 35.8525L37.5234 35.62ZM21.1434 22.88L21.4262 22.5972L21.1188 22.2898L20.838 22.6216L21.1434 22.88ZM29.3334 16.65C36.2625 16.65 41.9334 22.3209 41.9334 29.25H42.7334C42.7334 21.8791 36.7043 15.85 29.3334 15.85V16.65ZM41.9334 29.25C41.9334 36.1791 36.2625 41.85 29.3334 41.85V42.65C36.7043 42.65 42.7334 36.6209 42.7334 29.25H41.9334ZM29.3334 41.85C22.4043 41.85 16.7334 36.1791 16.7334 29.25H15.9334C15.9334 36.6209 21.9625 42.65 29.3334 42.65V41.85ZM16.7334 29.25C16.7334 22.3209 22.4043 16.65 29.3334 16.65V15.85C21.9625 15.85 15.9334 21.8791 15.9334 29.25H16.7334ZM29.3334 18.45C26.7779 18.45 24.4739 19.2579 22.705 20.7546L23.2218 21.3654C24.8328 20.0021 26.9488 19.25 29.3334 19.25V18.45ZM22.6805 21.3428L37.2405 35.9028L37.8062 35.3372L23.2462 20.7772L22.6805 21.3428ZM37.8489 35.8525C39.184 33.9833 40.1334 31.6937 40.1334 29.25H39.3334C39.3334 31.4863 38.4628 33.6167 37.1979 35.3875L37.8489 35.8525ZM40.1334 29.25C40.1334 23.3091 35.2743 18.45 29.3334 18.45V19.25C34.8325 19.25 39.3334 23.7509 39.3334 29.25H40.1334ZM35.9862 37.1572L21.4262 22.5972L20.8605 23.1628L35.4205 37.7228L35.9862 37.1572ZM20.838 22.6216C19.3412 24.3905 18.5334 26.6946 18.5334 29.25H19.3334C19.3334 26.8654 20.0855 24.7494 21.4487 23.1384L20.838 22.6216ZM18.5334 29.25C18.5334 35.1909 23.3925 40.05 29.3334 40.05V39.25C23.8343 39.25 19.3334 34.7491 19.3334 29.25H18.5334ZM29.3334 40.05C31.8888 40.05 34.1928 39.2421 35.9618 37.7454L35.445 37.1346C33.8339 38.4979 31.7179 39.25 29.3334 39.25V40.05Z" fill="white" mask="url(#path-2-inside-1_1_7809)"/>
<defs>
<linearGradient id="paint0_linear_1_7809" x1="42.3334" y1="42.25" x2="11.3957" y2="33.2799" gradientUnits="userSpaceOnUse">
<stop stop-color="#7210FF"/>
<stop offset="1" stop-color="#9D59FF"/>
</linearGradient>
</defs>
</svg>
