<svg width="25" height="24" viewBox="0 0 25 24" fill="none" xmlns="http://www.w3.org/2000/svg">
<path fill-rule="evenodd" clip-rule="evenodd" d="M17.3125 0.000201689C18.1012 0.000201689 18.8887 0.112622 19.6374 0.366514C24.2511 1.88229 25.9136 6.99804 24.5249 11.4696C23.7374 13.7546 22.4499 15.8401 20.7637 17.5441C18.35 19.9061 15.7012 22.003 12.85 23.8093L12.5375 24L12.2125 23.7966C9.35129 22.003 6.68757 19.9061 4.25135 17.5314C2.57637 15.8274 1.28763 13.7546 0.487642 11.4696C-0.924843 6.99804 0.737639 1.88229 5.40134 0.339988C5.76384 0.213674 6.13758 0.125253 6.51258 0.0759905H6.66257C7.01382 0.0242015 7.36257 0.000201689 7.71256 0.000201689H7.85006C8.63756 0.0242015 9.40004 0.163148 10.1388 0.41704H10.2125C10.2625 0.44104 10.3 0.467566 10.325 0.491566C10.6013 0.581249 10.8625 0.682301 11.1125 0.821247L11.5875 1.03598C11.7023 1.09784 11.8311 1.19236 11.9425 1.27405C12.013 1.3258 12.0765 1.37241 12.125 1.4023C12.1454 1.41446 12.1661 1.42668 12.187 1.43901C12.2942 1.50224 12.4059 1.5681 12.5 1.64103C13.8887 0.568618 15.575 -0.0124298 17.3125 0.000201689ZM20.6374 9.09486C21.1499 9.08097 21.5874 8.66539 21.6249 8.13361V7.98329C21.6624 6.21362 20.6012 4.61069 18.9874 3.99175C18.4749 3.81364 17.9125 4.0928 17.725 4.62332C17.55 5.15384 17.825 5.73489 18.3499 5.9231C19.1512 6.22625 19.6874 7.0233 19.6874 7.90624V7.9454C19.6637 8.23466 19.7499 8.51381 19.9249 8.72855C20.0999 8.94328 20.3624 9.06834 20.6374 9.09486Z" fill="url(#paint0_linear_211_4668)"/>
<defs>
<linearGradient id="paint0_linear_211_4668" x1="12.5" y1="0" x2="12.5" y2="24" gradientUnits="userSpaceOnUse">
<stop stop-color="#9D28AC"/>
<stop offset="1" stop-color="#FFC02D"/>
</linearGradient>
</defs>
</svg>
