<svg width="29" height="27" viewBox="0 0 29 27" fill="none" xmlns="http://www.w3.org/2000/svg">
<path fill-rule="evenodd" clip-rule="evenodd" d="M5.81875 0H13.1456C16.3638 0 18.9644 1.28395 19 4.54782V22.7631C19 22.9671 18.9525 23.1711 18.8575 23.3511C18.7031 23.6391 18.4419 23.8551 18.1213 23.9511C17.8125 24.0471 17.4681 23.9991 17.1831 23.8311L9.48812 19.9432L1.78125 23.8311C1.60431 23.9259 1.40125 23.9871 1.19937 23.9871C0.534373 23.9871 0 23.4351 0 22.7631V4.54782C0 1.28395 2.6125 0 5.81875 0ZM5.01125 9.14365H13.9531C14.4638 9.14365 14.8794 8.72246 14.8794 8.19568C14.8794 7.6677 14.4638 7.24772 13.9531 7.24772H5.01125C4.50063 7.24772 4.085 7.6677 4.085 8.19568C4.085 8.72246 4.50063 9.14365 5.01125 9.14365Z" fill="url(#paint0_linear_211_4664)"/>
<path d="M17.7574 18C16.6714 19 16 20 16 20C16 20 18.6862 24 22 24C22.411 24 22.8124 23.9383 23.2 23.8307M20.8096 16.1667C21.1942 16.0607 21.5926 16 22 16C25.3138 16 28 20 28 20C28 20 27.3283 21 26.2426 22M20.8942 18.8737C20.6289 19.1936 20.4867 19.6161 20.498 20.051C20.5093 20.4858 20.6732 20.8985 20.9546 21.2009C21.236 21.5034 21.6127 21.6716 22.0042 21.6696C22.3958 21.6676 22.7711 21.4956 23.05 21.1903M27.4 26L16.6 14" stroke="url(#paint1_linear_211_4664)" stroke-width="2" stroke-linecap="round" stroke-linejoin="round"/>
<defs>
<linearGradient id="paint0_linear_211_4664" x1="9.5" y1="0" x2="9.5" y2="24" gradientUnits="userSpaceOnUse">
<stop stop-color="#9D28AC"/>
<stop offset="1" stop-color="#FFC02D"/>
</linearGradient>
<linearGradient id="paint1_linear_211_4664" x1="22" y1="14" x2="22" y2="26" gradientUnits="userSpaceOnUse">
<stop stop-color="#9D28AC"/>
<stop offset="1" stop-color="#FFC02D"/>
</linearGradient>
</defs>
</svg>
