<svg width="40" height="40" viewBox="0 0 40 40" fill="none" xmlns="http://www.w3.org/2000/svg">
<path fill-rule="evenodd" clip-rule="evenodd" d="M27.7755 3.35057C30.1731 3.20072 32.5373 4.0332 34.3188 5.66484C35.9505 7.44633 36.7829 9.81055 36.6498 12.2247V27.7753C36.7996 30.1895 35.9505 32.5537 34.3355 34.3352C32.554 35.9668 30.1731 36.7993 27.7755 36.6495H12.2248C9.81064 36.7993 7.4464 35.9668 5.66489 34.3352C4.03323 32.5537 3.20075 30.1895 3.3506 27.7753V12.2247C3.20075 9.81055 4.03323 7.44633 5.66489 5.66484C7.4464 4.0332 9.81064 3.20072 12.2248 3.35057H27.7755ZM18.3019 28.075L29.5071 16.8366C30.5227 15.8044 30.5227 14.1394 29.5071 13.1238L27.3426 10.9594C26.3104 9.9271 24.6454 9.9271 23.6131 10.9594L22.4976 12.0915C22.3311 12.258 22.3311 12.5411 22.4976 12.7076C22.4976 12.7076 25.1449 15.3382 25.1948 15.4048C25.378 15.6046 25.4945 15.8709 25.4945 16.1706C25.4945 16.77 25.0117 17.2695 24.3957 17.2695C24.1126 17.2695 23.8462 17.153 23.6631 16.9698L20.8826 14.206C20.7494 14.0728 20.5163 14.0728 20.3831 14.206L12.4413 22.1478C11.8918 22.6972 11.5755 23.4298 11.5588 24.2123L11.4589 28.1582C11.4589 28.3747 11.5255 28.5745 11.6754 28.7243C11.8252 28.8742 12.025 28.9574 12.2415 28.9574H16.1541C16.9533 28.9574 17.7192 28.6411 18.3019 28.075Z" fill="#212121"/>
</svg>
