<svg width="30" height="27" viewBox="0 0 30 27" fill="none" xmlns="http://www.w3.org/2000/svg">
<path fill-rule="evenodd" clip-rule="evenodd" d="M5.67736 0H12.1966C15.06 0 17.374 1.15917 17.4057 4.10583V20.5508C17.4057 20.735 17.3634 20.9192 17.2789 21.0817C17.1415 21.3417 16.9091 21.5367 16.6238 21.6233C16.3491 21.71 16.0426 21.6667 15.7891 21.515L8.94226 18.005L2.08491 21.515C1.92747 21.6006 1.74679 21.6558 1.56717 21.6558C0.97547 21.6558 0.5 21.1575 0.5 20.5508V4.10583C0.5 1.15917 2.82453 0 5.67736 0ZM4.95887 8.255H12.9151C13.3694 8.255 13.7392 7.87475 13.7392 7.39917C13.7392 6.9225 13.3694 6.54333 12.9151 6.54333H4.95887C4.50453 6.54333 4.13472 6.9225 4.13472 7.39917C4.13472 7.87475 4.50453 8.255 4.95887 8.255Z" fill="#9E9E9E"/>
<path d="M17.6774 17.3333C16.53 18.4167 15.8206 19.5 15.8206 19.5C15.8206 19.5 18.6588 23.8333 22.1602 23.8333C22.5944 23.8333 23.0186 23.7665 23.4281 23.6499M20.9024 15.3472C21.3088 15.2324 21.7297 15.1667 22.1602 15.1667C25.6616 15.1667 28.4998 19.5 28.4998 19.5C28.4998 19.5 27.7901 20.5833 26.6429 21.6667M20.9918 18.2798C20.7115 18.6264 20.5613 19.0841 20.5732 19.5552C20.5851 20.0263 20.7582 20.4734 21.0556 20.801C21.353 21.1287 21.751 21.3109 22.1647 21.3087C22.5783 21.3066 22.9749 21.1202 23.2696 20.7895M27.8658 26L16.4545 13" stroke="url(#paint0_linear_211_4654)" stroke-width="2" stroke-linecap="round" stroke-linejoin="round"/>
<defs>
<linearGradient id="paint0_linear_211_4654" x1="22.1602" y1="13" x2="22.1602" y2="26" gradientUnits="userSpaceOnUse">
<stop stop-color="#9D28AC"/>
<stop offset="1" stop-color="#FFC02D"/>
</linearGradient>
</defs>
</svg>
