<svg width="33" height="33" viewBox="0 0 33 33" fill="none" xmlns="http://www.w3.org/2000/svg">
<path fill-rule="evenodd" clip-rule="evenodd" d="M23.5395 0.641149C25.7872 0.500669 28.0037 1.28111 29.6738 2.81078C31.2035 4.48093 31.984 6.69738 31.8591 8.96067V23.5393C31.9996 25.8026 31.2035 28.0191 29.6895 29.6892C28.0193 31.2189 25.7872 31.9993 23.5395 31.8589H8.96073C6.69743 31.9993 4.48096 31.2189 2.8108 29.6892C1.28112 28.0191 0.500668 25.8026 0.641149 23.5393V8.96067C0.500668 6.69738 1.28112 4.48093 2.8108 2.81078C4.48096 1.28111 6.69743 0.500669 8.96073 0.641149H23.5395ZM14.658 23.8203L25.1628 13.2843C26.115 12.3166 26.115 10.7557 25.1628 9.80354L23.1337 7.77439C22.1659 6.80664 20.605 6.80664 19.6373 7.77439L18.5915 8.8358C18.4354 8.99188 18.4354 9.25723 18.5915 9.41332C18.5915 9.41332 21.0733 11.8795 21.1201 11.942C21.2918 12.1293 21.4011 12.379 21.4011 12.66C21.4011 13.2219 20.9484 13.6901 20.3709 13.6901C20.1055 13.6901 19.8558 13.5809 19.6841 13.4092L17.0774 10.8181C16.9525 10.6932 16.734 10.6932 16.6091 10.8181L9.16365 18.2635C8.64855 18.7786 8.35198 19.4654 8.33637 20.199L8.24272 23.8983C8.24272 24.1013 8.30516 24.2886 8.44564 24.429C8.58612 24.5695 8.77343 24.6476 8.97634 24.6476H12.6445C13.3937 24.6476 14.1117 24.351 14.658 23.8203Z" fill="#212121"/>
<path d="M29.6738 2.81078L30.0426 2.47307L30.0277 2.45688L30.0116 2.44206L29.6738 2.81078ZM23.5395 0.641149V1.14115H23.5551L23.5707 1.14018L23.5395 0.641149ZM31.8591 8.96067L31.3599 8.93312L31.3591 8.94688V8.96067H31.8591ZM31.8591 23.5393H31.3591V23.5548L31.3601 23.5703L31.8591 23.5393ZM29.6895 29.6892L30.0272 30.0579L30.0443 30.0423L30.0599 30.025L29.6895 29.6892ZM23.5395 31.8589L23.5707 31.3598L23.5551 31.3589H23.5395V31.8589ZM8.96073 31.8589V31.3589H8.94523L8.92976 31.3598L8.96073 31.8589ZM2.8108 29.6892L2.44208 30.0269L2.4569 30.0431L2.47309 30.0579L2.8108 29.6892ZM0.641149 23.5393L1.14019 23.5703L1.14115 23.5548V23.5393H0.641149ZM0.641149 8.96067H1.14115V8.94516L1.14019 8.92969L0.641149 8.96067ZM2.8108 2.81078L2.47309 2.44206L2.4569 2.45688L2.44208 2.47307L2.8108 2.81078ZM8.96073 0.641149L8.92976 1.14019L8.94523 1.14115H8.96073V0.641149ZM25.1628 13.2843L25.5169 13.6374L25.5193 13.635L25.1628 13.2843ZM14.658 23.8203L15.0064 24.179L15.0121 24.1733L14.658 23.8203ZM25.1628 9.80354L24.8093 10.1571L25.1628 9.80354ZM23.1337 7.77439L23.4872 7.42084L23.1337 7.77439ZM19.6373 7.77439L19.2837 7.42083L19.2811 7.42347L19.6373 7.77439ZM18.5915 8.8358L18.945 9.18936L18.9476 9.18672L18.5915 8.8358ZM18.5915 9.41332L18.2379 9.76688L18.239 9.76799L18.5915 9.41332ZM21.1201 11.942L20.7201 12.242L20.7349 12.2617L20.7515 12.2798L21.1201 11.942ZM19.6841 13.4092L20.0377 13.0556L20.0366 13.0546L19.6841 13.4092ZM17.0774 10.8181L16.7238 11.1717L16.7249 11.1727L17.0774 10.8181ZM16.6091 10.8181L16.9627 11.1717L16.6091 10.8181ZM9.16365 18.2635L8.8101 17.91V17.91L9.16365 18.2635ZM8.33637 20.199L8.83622 20.2117L8.83626 20.2097L8.33637 20.199ZM8.24272 23.8983L7.74272 23.8857V23.8983H8.24272ZM8.44564 24.429L8.09208 24.7826H8.09208L8.44564 24.429ZM30.0116 2.44206C28.2412 0.82067 25.8916 -0.00683099 23.5083 0.142123L23.5707 1.14018C25.6828 1.00817 27.7661 1.74155 29.3361 3.1795L30.0116 2.44206ZM32.3583 8.98821C32.4905 6.59242 31.6644 4.2438 30.0426 2.47307L29.3051 3.14849C30.7427 4.71805 31.4774 6.80235 31.3599 8.93312L32.3583 8.98821ZM32.3591 23.5393V8.96067H31.3591V23.5393H32.3591ZM30.0599 30.025C31.6629 28.2568 32.5071 25.9087 32.3581 23.5084L31.3601 23.5703C31.492 25.6965 30.7442 27.7813 29.319 29.3534L30.0599 30.025ZM23.5083 32.3579C25.8908 32.5068 28.2562 31.6799 30.0272 30.0579L29.3517 29.3205C27.7824 30.7579 25.6837 31.4919 23.5707 31.3598L23.5083 32.3579ZM8.96073 32.3589H23.5395V31.3589H8.96073V32.3589ZM2.47309 30.0579C4.24377 31.6797 6.59347 32.5067 8.99171 32.3579L8.92976 31.3598C6.80139 31.4919 4.71814 30.7581 3.1485 29.3205L2.47309 30.0579ZM0.142109 23.5084C-0.00674683 25.9066 0.820336 28.2563 2.44208 30.0269L3.17952 29.3515C1.7419 27.7819 1.00808 25.6987 1.14019 23.5703L0.142109 23.5084ZM0.141149 8.96067V23.5393H1.14115V8.96067H0.141149ZM2.44208 2.47307C0.820336 4.24374 -0.00674677 6.59342 0.142109 8.99164L1.14019 8.92969C1.00808 6.80134 1.7419 4.71812 3.17952 3.14849L2.44208 2.47307ZM8.99171 0.142109C6.59347 -0.00674552 4.24377 0.820329 2.47309 2.44206L3.1485 3.1795C4.71814 1.74189 6.80139 1.00808 8.92976 1.14019L8.99171 0.142109ZM23.5395 0.141149H8.96073V1.14115H23.5395V0.141149ZM24.8088 12.9313L14.3039 23.4673L15.0121 24.1733L25.5169 13.6373L24.8088 12.9313ZM24.8093 10.1571C25.5646 10.9124 25.5687 12.1589 24.8064 12.9336L25.5193 13.635C26.6613 12.4743 26.6654 10.599 25.5164 9.44999L24.8093 10.1571ZM22.7801 8.12795L24.8093 10.1571L25.5164 9.44999L23.4872 7.42084L22.7801 8.12795ZM19.9908 8.12795C20.7633 7.35546 22.0076 7.35546 22.7801 8.12795L23.4872 7.42084C22.3242 6.25783 20.4467 6.25783 19.2837 7.42084L19.9908 8.12795ZM18.9476 9.18672L19.9934 8.12532L19.2811 7.42347L18.2353 8.48487L18.9476 9.18672ZM18.945 9.05977C18.9686 9.08331 18.9744 9.10879 18.9744 9.12456C18.9744 9.14033 18.9686 9.16581 18.945 9.18935L18.2379 8.48224C17.8866 8.83359 17.8866 9.41553 18.2379 9.76688L18.945 9.05977ZM21.5201 11.642C21.4932 11.606 21.4499 11.5624 21.4437 11.556C21.4212 11.5326 21.3907 11.5015 21.3542 11.4644C21.2808 11.39 21.1792 11.2877 21.0594 11.1675C20.8195 10.927 20.5045 10.6124 20.1912 10.3001C19.8779 9.98778 19.5661 9.67742 19.3326 9.44516C19.2159 9.32903 19.1187 9.23242 19.0507 9.16483C19.0167 9.13103 18.99 9.1045 18.9718 9.0864C18.9627 9.07736 18.9557 9.07042 18.951 9.06575C18.9487 9.06341 18.9469 9.06164 18.9457 9.06045C18.9451 9.05986 18.9447 9.05941 18.9444 9.05911C18.9442 9.05896 18.9441 9.05885 18.944 9.05877C18.944 9.05873 18.944 9.0587 18.9439 9.05868C18.9439 9.05867 18.9439 9.05865 18.5915 9.41332C18.239 9.76799 18.239 9.768 18.2391 9.76802C18.2391 9.76804 18.2391 9.76806 18.2391 9.7681C18.2392 9.76818 18.2393 9.76829 18.2395 9.76844C18.2398 9.76873 18.2402 9.76918 18.2408 9.76977C18.242 9.77095 18.2438 9.77272 18.2461 9.77505C18.2508 9.77971 18.2578 9.78663 18.2669 9.79567C18.2851 9.81373 18.3117 9.84024 18.3457 9.874C18.4136 9.94153 18.5107 10.0381 18.6274 10.1541C18.8607 10.3862 19.1723 10.6963 19.4852 11.0083C19.7983 11.3204 20.1125 11.6341 20.3512 11.8735C20.4706 11.9933 20.5706 12.094 20.6419 12.1663C20.6777 12.2027 20.7053 12.2309 20.7243 12.2506C20.7596 12.2871 20.7412 12.2701 20.7201 12.242L21.5201 11.642ZM21.9011 12.66C21.9011 12.2452 21.7389 11.877 21.4887 11.6041L20.7515 12.2798C20.8448 12.3815 20.9011 12.5128 20.9011 12.66H21.9011ZM20.3709 14.1901C21.2295 14.1901 21.9011 13.4931 21.9011 12.66H20.9011C20.9011 12.9507 20.6674 13.1901 20.3709 13.1901V14.1901ZM19.3305 13.7627C19.5949 14.0271 19.9714 14.1901 20.3709 14.1901V13.1901C20.2397 13.1901 20.1166 13.1346 20.0377 13.0556L19.3305 13.7627ZM16.7249 11.1727L19.3316 13.7638L20.0366 13.0546L17.4299 10.4635L16.7249 11.1727ZM16.9627 11.1717C16.9211 11.2133 16.8748 11.2245 16.8433 11.2245C16.8118 11.2245 16.7654 11.2133 16.7238 11.1717L17.431 10.4646C17.1108 10.1444 16.5757 10.1444 16.2556 10.4646L16.9627 11.1717ZM9.5172 18.6171L16.9627 11.1717L16.2556 10.4646L8.8101 17.91L9.5172 18.6171ZM8.83626 20.2097C8.8491 19.6061 9.09248 19.0418 9.5172 18.6171L8.8101 17.91C8.20463 18.5155 7.85486 19.3248 7.83649 20.1884L8.83626 20.2097ZM8.74256 23.911L8.83621 20.2117L7.83653 20.1864L7.74288 23.8857L8.74256 23.911ZM8.79919 24.0755C8.7713 24.0476 8.74272 23.9979 8.74272 23.8983H7.74272C7.74272 24.2046 7.83902 24.5295 8.09208 24.7826L8.79919 24.0755ZM8.97634 24.1476C8.90531 24.1476 8.84539 24.1217 8.79919 24.0755L8.09208 24.7826C8.32685 25.0174 8.64154 25.1476 8.97634 25.1476V24.1476ZM12.6445 24.1476H8.97634V25.1476H12.6445V24.1476ZM14.3096 23.4617C13.8541 23.9042 13.2601 24.1476 12.6445 24.1476V25.1476C13.5273 25.1476 14.3693 24.7978 15.0064 24.1789L14.3096 23.4617Z" fill="url(#paint0_linear_242_3102)"/>
<defs>
<linearGradient id="paint0_linear_242_3102" x1="16.25" y1="0.625" x2="16.25" y2="31.875" gradientUnits="userSpaceOnUse">
<stop stop-color="#9D28AC"/>
<stop offset="1" stop-color="#FFC02D"/>
</linearGradient>
</defs>
</svg>
